<?xml version="1.0" standalone="no"?>
<!DOCTYPE svg PUBLIC "-//W3C//DTD SVG 20010904//EN"
 "http://www.w3.org/TR/2001/REC-SVG-20010904/DTD/svg10.dtd">
<svg version="1.0" xmlns="http://www.w3.org/2000/svg"
 width="367.000000pt" height="367.000000pt" viewBox="0 0 367.000000 367.000000"
 preserveAspectRatio="xMidYMid meet">
<metadata>
Created by potrace 1.11, written by Peter Selinger 2001-2013
</metadata>
<g transform="translate(0.000000,367.000000) scale(0.100000,-0.100000)"
fill="#000000" stroke="none">
<path d="M1449 3026 c-127 -46 -200 -154 -198 -293 1 -73 15 -111 59 -164 46
-55 59 -105 54 -214 -5 -109 -25 -174 -67 -214 -34 -34 -47 -34 -104 5 -31 21
-38 22 -66 10 -34 -13 -55 -59 -56 -121 -3 -102 -111 -100 -255 6 -28 21 -56
42 -62 48 -6 5 -30 19 -54 31 -65 33 -140 30 -215 -8 -143 -72 -228 -219 -181
-310 67 -129 211 -185 366 -143 25 7 92 29 150 48 166 55 214 61 276 32 38
-18 123 -97 125 -116 1 -5 6 -19 11 -33 6 -14 12 -42 15 -62 5 -33 2 -39 -21
-49 -22 -11 -36 -8 -98 17 -40 16 -77 29 -83 30 -49 2 -126 -64 -161 -139 -41
-90 -26 -178 38 -213 48 -27 89 -14 188 60 101 75 125 58 123 -89 -3 -162 -71
-263 -187 -278 -50 -7 -84 -32 -120 -90 -71 -115 -5 -252 131 -273 112 -17
268 16 375 79 60 35 127 103 149 151 21 48 13 75 -40 131 -123 128 -93 252 74
305 57 19 220 21 276 4 79 -24 124 -88 123 -174 -1 -32 -13 -100 -20 -111 -15
-25 -29 -109 -23 -142 12 -77 97 -129 212 -131 65 -1 70 1 98 32 24 26 29 41
29 81 0 45 -14 134 -28 171 -7 20 -10 31 -16 56 -2 12 -12 44 -21 70 -10 27
-19 77 -22 111 -7 74 15 126 78 185 65 62 117 87 170 84 60 -4 96 -31 167
-126 153 -201 219 -249 332 -244 99 4 232 88 286 180 47 79 27 175 -50 242
-52 45 -140 80 -246 96 -19 3 -46 8 -60 10 -27 5 -91 13 -155 21 -87 11 -182
51 -192 80 -27 78 47 155 150 158 28 1 86 -2 128 -7 71 -8 77 -7 103 16 52 44
41 165 -19 204 -24 16 -32 16 -78 4 -29 -7 -62 -20 -74 -28 -13 -8 -23 -11
-23 -6 0 4 -5 3 -11 -3 -6 -6 -20 -8 -31 -5 -17 4 -19 11 -15 46 9 64 71 114
255 202 85 41 156 74 157 74 7 0 128 71 184 108 99 64 181 158 175 200 -1 6
-2 21 -3 32 -2 37 -71 99 -136 121 -60 21 -159 28 -221 15 -86 -17 -176 -75
-244 -157 -47 -57 -180 -253 -180 -265 0 -13 -139 -200 -167 -224 -15 -14 -51
-37 -78 -52 -41 -22 -61 -26 -111 -24 -135 5 -237 129 -173 210 12 15 60 53
108 85 96 65 122 91 141 138 34 88 -55 242 -141 243 -47 0 -79 -35 -144 -157
-75 -139 -123 -207 -175 -242 -54 -37 -91 -47 -169 -44 -79 2 -96 28 -71 113
7 25 21 72 30 106 10 33 21 77 24 97 3 20 10 54 14 74 5 21 8 74 7 118 -1 156
-61 221 -203 223 -42 1 -93 -4 -113 -12z"/>
</g>
</svg>
